<svg width="24" height="24" viewBox="0 0 24 24" fill="none" xmlns="http://www.w3.org/2000/svg">
<path fill-rule="evenodd" clip-rule="evenodd" d="M12 2C17.5228 2 22 6.47715 22 12C22 17.5228 17.5228 22 12 22C6.47715 22 2 17.5228 2 12C2 6.47715 6.47715 2 12 2ZM12 2.75C6.89137 2.75 2.75 6.89137 2.75 12C2.75 17.1086 6.89137 21.25 12 21.25C17.1086 21.25 21.25 17.1086 21.25 12C21.25 6.89137 17.1086 2.75 12 2.75ZM8.71053 7C9.07024 7 9.36752 7.2673 9.41457 7.61411L9.42105 7.72C9.42105 8.11241 9.10294 8.43053 8.71053 8.43053C8.35081 8.43053 8.05353 8.16322 8.00649 7.81641L8 7.71053C8 7.31811 8.31811 7 8.71053 7ZM8.71053 9.8421C9.07024 9.8421 9.36752 10.1094 9.41457 10.4562L9.42105 10.5526V15.2895C9.42105 15.6819 9.10294 16 8.71053 16C8.35081 16 8.05353 15.7327 8.00649 15.3859L8 15.2895V10.5526C8 10.1602 8.31811 9.8421 8.71053 9.8421ZM12.5 9.8421C12.7567 9.8421 12.9817 9.97829 13.1065 10.1824C13.4865 9.96581 13.9262 9.8421 14.3947 9.8421C15.7803 9.8421 16.9132 10.9237 16.9952 12.2887L17 12.4474V15.2895C17 15.6819 16.6819 16 16.2895 16C15.9298 16 15.6325 15.7327 15.5854 15.3859L15.5789 15.2895V12.4474C15.5789 11.7933 15.0488 11.2632 14.3947 11.2632C13.7816 11.2632 13.2773 11.7291 13.2166 12.3263L13.2105 12.4474V15.2895C13.2105 15.6819 12.8924 16 12.5 16C12.1403 16 11.843 15.7327 11.796 15.3859L11.7895 15.2895V12.4474V10.5526C11.7895 10.1602 12.1076 9.8421 12.5 9.8421Z" fill="#212121"/>
</svg>
