<svg width="24" height="24" viewBox="0 0 24 24" fill="none" xmlns="http://www.w3.org/2000/svg">
<path fill-rule="evenodd" clip-rule="evenodd" d="M16.75 4H6.75C4.12665 4 2 6.12665 2 8.75V14.75C2 17.3734 4.12665 19.5 6.75 19.5H16.75C19.3734 19.5 21.5 17.3734 21.5 14.75V8.75C21.5 6.12665 19.3734 4 16.75 4ZM6.75 5.5H16.75C18.5449 5.5 20 6.95507 20 8.75V14.75C20 16.5449 18.5449 18 16.75 18H6.75C4.95507 18 3.5 16.5449 3.5 14.75V8.75C3.5 6.95507 4.95507 5.5 6.75 5.5ZM9 8.75V14.75C9 15.333 9.63598 15.6931 10.1359 15.3931L15.1359 12.3931C15.6214 12.1018 15.6214 11.3982 15.1359 11.1069L10.1359 8.10688C9.63598 7.80694 9 8.16703 9 8.75ZM10.5 10.075L13.292 11.75L10.5 13.424V10.075Z" fill="#212121"/>
</svg>
